<svg width="30" height="30" viewBox="0 0 30 30" fill="none" xmlns="http://www.w3.org/2000/svg">
<path d="M20.5 13.71V11.3933C20.5 10.8989 20.6362 10.4197 20.9123 10.0752C21.1748 9.74754 21.5982 9.49667 22.2867 9.49667H24.2817H24.7817V8.99667V4.655V4.15555L24.2822 4.155L21.2772 4.15167H21.2767C19.0477 4.15167 17.3344 4.81758 16.1808 6.02355C15.0311 7.22537 14.5 8.89821 14.5 10.7917V13.7083H11.6667H11.1667V14.2083V18.3333V18.8333H11.6667H14.5V29.5H3.33333C1.77598 29.5 0.5 28.2254 0.5 26.6667V3.33333C0.5 1.77614 1.77614 0.5 3.33333 0.5H26.6667C28.2239 0.5 29.5 1.77614 29.5 3.33333V26.6667C29.5 28.2254 28.224 29.5 26.6667 29.5H20.5V18.8333H23.3333H23.7315L23.8207 18.4452L24.7673 14.3219L24.9078 13.71H24.28H20.5Z" stroke="black"/>
</svg>
