<svg width="32" height="32" viewBox="0 0 32 32" fill="none" xmlns="http://www.w3.org/2000/svg">
<path d="M25.1622 5.00993C24.812 5.00517 24.4682 5.10435 24.1744 5.29494C23.8805 5.48554 23.6498 5.75898 23.5114 6.08069C23.373 6.40241 23.333 6.75795 23.3967 7.10236C23.4603 7.44676 23.6246 7.76457 23.8688 8.01559C24.1131 8.26662 24.4263 8.43958 24.7688 8.51261C25.1113 8.58565 25.4678 8.55547 25.7932 8.4259C26.1186 8.29633 26.3983 8.07319 26.5968 7.78469C26.7954 7.49618 26.904 7.15528 26.9088 6.80508V6.75656C26.9046 6.29463 26.7192 5.85282 26.3926 5.52617C26.0659 5.19952 25.6241 5.01415 25.1622 5.00993Z" stroke="black" stroke-linecap="round" stroke-linejoin="round"/>
<path d="M29.3423 1.00052H2.57682C2.15494 1.01107 1.7539 1.1861 1.4593 1.48826C1.1647 1.79042 0.999868 2.19576 1 2.61777V29.3833C1 29.8122 1.17039 30.2235 1.47368 30.5268C1.77698 30.8301 2.18833 31.0005 2.61725 31.0005H29.3827C29.8117 31.0005 30.223 30.8301 30.5263 30.5268C30.8296 30.2235 31 29.8122 31 29.3833V2.57734C30.9948 2.36494 30.9477 2.15565 30.8616 1.96144C30.7754 1.76723 30.6518 1.59189 30.4979 1.44546C30.3439 1.29902 30.1626 1.18436 29.9644 1.10801C29.7661 1.03167 29.5547 0.995142 29.3423 1.00052Z" stroke="black" stroke-linecap="round" stroke-linejoin="round"/>
<path d="M15.961 9.26562C14.6368 9.26563 13.3423 9.6583 12.2413 10.394C11.1402 11.1297 10.282 12.1754 9.77529 13.3988C9.26853 14.6222 9.13593 15.9685 9.39428 17.2673C9.65262 18.566 10.2903 19.759 11.2267 20.6954C12.163 21.6318 13.3561 22.2695 14.6548 22.5278C15.9536 22.7862 17.2998 22.6536 18.5233 22.1468C19.7467 21.64 20.7924 20.7819 21.5281 19.6808C22.2638 18.5798 22.6565 17.2853 22.6565 15.961C22.6565 14.1853 21.9511 12.4823 20.6954 11.2267C19.4398 9.97103 17.7368 9.26562 15.961 9.26562Z" stroke="black" stroke-linecap="round" stroke-linejoin="round"/>
</svg>
