<svg width="30" height="30" viewBox="0 0 30 30" fill="none" xmlns="http://www.w3.org/2000/svg">
<path d="M20.2273 10.3985C18.5913 10.3986 17.3127 11.0224 16.4566 11.8321V11.2452V10.7452H15.9566H11.6877H11.1877V11.2452V25.5739V26.0739H11.6877H16.1336H16.6336V25.5739V18.4944C16.6336 17.5682 16.7337 16.7573 17.0503 16.1888C17.2024 15.9156 17.4023 15.7029 17.6683 15.5549C17.9367 15.4055 18.3017 15.3059 18.8066 15.3059C19.2979 15.3059 19.6223 15.4197 19.8456 15.5756C20.0699 15.7323 20.2351 15.9615 20.3551 16.2654C20.6067 16.9023 20.6205 17.7503 20.6205 18.6026V25.5739V26.0739H21.1205H25.5738H26.0738V25.5739V17.705C26.0738 15.7696 25.8691 13.9388 25.0146 12.5877C24.1268 11.1839 22.6051 10.3934 20.2273 10.3985ZM20.2273 10.3985C20.2275 10.3985 20.2277 10.3985 20.2279 10.3985V10.898L20.2268 10.3985C20.227 10.3985 20.2271 10.3985 20.2273 10.3985ZM27.7869 0.50013L27.7909 0.500098C28.2377 0.496523 28.668 0.669469 28.988 0.981342C29.3071 1.29224 29.4909 1.71615 29.5 2.16142V27.8302C29.4932 28.2772 29.3101 28.7034 28.9906 29.0162C28.6704 29.3297 28.239 29.5037 27.7908 29.5001V29.5001H27.7869L2.21311 29.5001L2.20801 29.5001C1.76083 29.5047 1.33004 29.3319 1.00993 29.0197C0.690631 28.7082 0.507379 28.2831 0.5 27.8372V2.16732C0.506252 1.72054 0.689087 1.29435 1.00862 0.981919C1.32884 0.668815 1.76019 0.49553 2.20803 0.500088L2.20803 0.500114H2.21311L27.7869 0.50013ZM8.89426 26.0739H9.39426V25.5739V11.2452V10.7452H8.89426H4.44098H3.94098V11.2452V25.5739V26.0739H4.44098H8.89426ZM6.68162 9.79274L6.68257 9.78784C7.08248 9.78733 7.47854 9.709 7.84861 9.55715C8.22351 9.40333 8.56439 9.17708 8.85174 8.89136C9.1391 8.60564 9.36729 8.26606 9.52325 7.89205C9.67921 7.51804 9.75989 7.11694 9.76066 6.71172V6.71077C9.76066 6.10109 9.57983 5.50511 9.24105 4.99822C8.90226 4.49132 8.42075 4.0963 7.85743 3.86312C7.2941 3.62994 6.67427 3.56908 6.07635 3.68824C5.47842 3.80739 4.92927 4.10121 4.49837 4.53253C4.06747 4.96384 3.77417 5.51327 3.65558 6.11131C3.537 6.70934 3.59845 7.32912 3.83217 7.89222C4.06588 8.45533 4.46136 8.93646 4.96858 9.27476C5.47579 9.61306 6.07194 9.79332 6.68162 9.79274Z" stroke="black"/>
</svg>
