<svg width="19" height="18" viewBox="0 0 19 18" fill="none" xmlns="http://www.w3.org/2000/svg">
<path d="M9.57403 14.2916C9.78368 14.1673 10.0444 14.1673 10.2541 14.2916L14.7423 16.953C15.2485 17.2532 15.867 16.7981 15.731 16.2256L14.5484 11.245C14.4905 11.0013 14.5741 10.7457 14.7649 10.5833L18.6934 7.23977C19.145 6.85543 18.9076 6.11699 18.3167 6.06773L13.1225 5.63478C12.8772 5.61434 12.6632 5.46046 12.5657 5.23449L10.5262 0.506842C10.2946 -0.0299468 9.5335 -0.0299478 9.30193 0.506842L7.26242 5.23449C7.16494 5.46046 6.9509 5.61434 6.70566 5.63478L1.51143 6.06773C0.920475 6.11699 0.683129 6.85543 1.13472 7.23978L5.06322 10.5833C5.25399 10.7457 5.33764 11.0013 5.27976 11.245L4.09712 16.2256C3.96117 16.7981 4.5796 17.2532 5.08578 16.953L9.57403 14.2916Z" fill="black"/>
</svg>
