<svg width="30" height="28" viewBox="0 0 30 28" fill="none" xmlns="http://www.w3.org/2000/svg">
<path d="M13.1163 17.3069L4.96816 26.6163H1.69428L11.7188 15.158L11.9883 14.85L11.7396 14.525L1.012 0.50125H9.24376L15.6475 8.96787L16.0181 9.4579L16.4226 8.99543L23.8532 0.5H27.1245L17.7999 11.1583L17.532 11.4646L17.7775 11.7892L28.9948 26.6163H20.9896L13.8897 17.3325L13.5186 16.8473L13.1163 17.3069ZM21.6154 24.6675L21.7654 24.8637H22.0125H24.5613H25.5663L24.96 24.0621L8.50629 2.30714L8.35624 2.10875H8.1075H5.3725H4.36057L4.97535 2.91252L21.6154 24.6675Z" stroke="black"/>
</svg>
