<svg width="152" height="118" viewBox="0 0 152 118" fill="none" xmlns="http://www.w3.org/2000/svg">
<path fill-rule="evenodd" clip-rule="evenodd" d="M0.109417 34.9376C9.40636e-08 39.4826 0 44.6252 0 50.5V67.3333C0 91.1357 -5.01672e-07 103.045 7.39825 110.435C14.7881 117.833 26.6977 117.833 50.5 117.833H101C124.802 117.833 136.712 117.833 144.102 110.435C151.5 103.045 151.5 91.1357 151.5 67.3333V50.5C151.5 44.6252 151.5 39.4742 151.391 34.9376L83.9226 72.417C81.4224 73.8054 78.6098 74.534 75.75 74.534C72.8902 74.534 70.0776 73.8054 67.5774 72.417L0.109417 34.9376ZM2.04525 17.0858C2.74664 17.2542 3.42839 17.5235 4.0905 17.8938L75.75 57.7047L147.41 17.8938C148.077 17.5291 148.759 17.2598 149.455 17.0858C148.361 13.0963 146.677 9.97375 144.102 7.39825C136.712 1.50502e-06 124.802 0 101 0H50.5C26.6977 0 14.7881 1.50502e-06 7.39825 7.39825C4.81433 9.97375 3.13942 13.0963 2.04525 17.0774" fill="#FF6600"/>
</svg>
