<svg width="20" height="21" viewBox="0 0 20 21" fill="none" xmlns="http://www.w3.org/2000/svg">
<path d="M2 11C3.1595 11.0985 7 12 7 13.5C7 15 4.9325 14.4945 4 14.5C3.1995 14.432 1 14.5 1 16C1 17.5 4.5 18.5 8 19C11.5 19.5 17 19.5 17 19.5M2 8L5 5M12 1H17L19 3" stroke="white" stroke-width="2" stroke-linecap="round" stroke-linejoin="round"/>
<path d="M13 5L16 8H8L5 5H13Z" fill="white" stroke="white" stroke-width="2" stroke-linecap="round" stroke-linejoin="round"/>
<path d="M19 9V6M11 13V11M14 15V11" stroke="white" stroke-width="2" stroke-linecap="round" stroke-linejoin="round"/>
</svg>
