<svg id="Layer_1" data-name="Layer 1" xmlns="http://www.w3.org/2000/svg" viewBox="0 0 1300 1300"><defs><style>.cls-1{fill:#fff;opacity:0.5;}</style></defs><path class="cls-1" d="M183.63,228.65l839.43,260.78c24.91,7.74,37.27,34.06,26.6,56.63L850.32,967.48c-13.13,27.75-52.32,33.42-73.68,10.65L136.54,295.94C106.59,264,140.68,215.31,183.63,228.65Z"/><path class="cls-1" d="M1055.38,378.07H1169a5.75,5.75,0,0,1,3.28,10.47l-50.92,35.31-62.74,43.51a5.73,5.73,0,0,1-6.55,0l-62.75-43.51-50.91-35.31a5.75,5.75,0,0,1,3.27-10.47Z"/><path class="cls-1" d="M1028.57,494.88,551.49,1056.09c-7.28,8.07,1,20.51,11.27,16.87L853.12,969.58a10.5,10.5,0,0,0,6-5.58l193.67-430.38C1057.89,521.15,1036.55,486,1028.57,494.88Z"/><path class="cls-1" d="M1021.39,494.58,495.8,901.75c-13,9.48-7.61,30,8.35,31.86L832,972.47A42.56,42.56,0,0,0,876.11,947L1052,536.24C1059.08,519.71,1035.92,484,1021.39,494.58Z"/></svg>