<svg id="Layer_1" data-name="Layer 1" xmlns="http://www.w3.org/2000/svg" viewBox="0 0 1300 1300"><defs><style>.cls-1{fill:#231f20;opacity:0.5;}</style></defs><path class="cls-1" d="M183.63,252.84l839.43,260.78c24.91,7.74,37.27,34.06,26.6,56.63L850.32,991.67c-13.13,27.75-52.32,33.41-73.68,10.65l-640.1-682.2C106.59,288.2,140.68,239.5,183.63,252.84Z"/><path class="cls-1" d="M1055.38,402.25H1169a5.75,5.75,0,0,1,3.28,10.48L1121.4,448l-62.74,43.51a5.73,5.73,0,0,1-6.55,0L989.36,448l-50.91-35.31a5.75,5.75,0,0,1,3.27-10.48Z"/><path class="cls-1" d="M1028.57,519.07,551.49,1080.28c-7.28,8.07,1,20.51,11.27,16.86L853.12,993.77a10.48,10.48,0,0,0,6-5.59L1052.83,557.8C1057.89,545.34,1036.55,510.23,1028.57,519.07Z"/><path class="cls-1" d="M1021.39,518.76,495.8,925.94c-13,9.48-7.61,30,8.35,31.85L832,996.66a42.58,42.58,0,0,0,44.13-25.51L1052,560.43C1059.08,543.89,1035.92,508.15,1021.39,518.76Z"/></svg>