<svg width="19" height="18" viewBox="0 0 19 18" fill="none" xmlns="http://www.w3.org/2000/svg">
<path d="M9.31769 14.2916C9.52733 14.1673 9.7881 14.1673 9.99774 14.2916L14.486 16.953C14.9922 17.2532 15.6106 16.7981 15.4747 16.2256L14.292 11.245C14.2341 11.0013 14.3178 10.7457 14.5086 10.5833L18.4371 7.23977C18.8886 6.85543 18.6513 6.11699 18.0603 6.06773L12.8661 5.63478C12.6209 5.61434 12.4068 5.46046 12.3094 5.23449L10.2698 0.506842C10.0383 -0.0299468 9.27715 -0.0299478 9.04558 0.506842L7.00607 5.23449C6.90859 5.46046 6.69456 5.61434 6.44931 5.63478L1.25508 6.06773C0.664128 6.11699 0.426781 6.85543 0.878371 7.23978L4.80687 10.5833C4.99764 10.7457 5.08129 11.0013 5.02341 11.245L3.84077 16.2256C3.70482 16.7981 4.32326 17.2532 4.82943 16.953L9.31769 14.2916Z" fill="black"/>
</svg>
