<svg width="50" height="49" viewBox="0 0 50 49" fill="none" xmlns="http://www.w3.org/2000/svg">
<path d="M28.9963 37.8787C29.041 38.1209 29.2053 38.339 29.4529 38.4851C29.6549 38.6044 29.899 38.6677 30.148 38.6677C30.204 38.6677 30.2604 38.6645 30.3167 38.6579L47.1342 36.7053C47.5372 36.6586 47.8799 36.4484 48.0381 36.151C48.1964 35.8536 48.1471 35.5124 47.9082 35.2511L26.3763 11.6922C26.062 11.3481 25.4916 11.2189 24.9952 11.3787C24.4988 11.5387 24.2042 11.9468 24.2819 12.3671L28.9963 37.8787ZM44.8955 35.1002L31.1311 36.6982L27.2728 15.8181L44.8955 35.1002Z" fill="#B8B8B8"/>
<path d="M49.021 40.4057C48.8006 40.0935 48.3724 39.91 47.9216 39.9364C47.8183 39.9423 38.67 40.4707 28.567 41.4054L27.0693 33.2982H27.069L21.1755 1.40616C21.1123 1.06406 20.8132 0.77874 20.4004 0.666883C19.9876 0.554884 19.5306 0.635512 19.2165 0.875266L18.6529 1.30537C4.89376 11.807 -1.66804 27.0202 1.10023 42.0006C1.18494 42.4595 1.68225 42.7897 2.25048 42.7897C2.30654 42.7897 2.36349 42.7865 2.42061 42.7799L25.9629 40.0467L26.2547 41.6253C25.6764 41.6818 25.0969 41.7394 24.5179 41.7983C3.11349 43.9787 0.163086 45.9207 0.163086 47.6945C0.163086 48.2041 0.684219 48.6172 1.32713 48.6172H32.5203C32.5761 48.6172 32.632 48.6141 32.6874 48.6077L34.4024 48.4105C40.2234 47.7414 45.5264 45.1839 48.9519 41.3941C49.2146 41.1031 49.2417 40.7178 49.021 40.4057ZM3.24691 40.8187C1.07641 27.1159 6.98402 13.3009 19.2036 3.46841L25.6256 38.2206L3.24691 40.8187ZM34.0681 46.5842L32.4361 46.7719H4.63301C5.73635 46.4334 7.3986 46.0263 9.9004 45.5798C13.8207 44.8801 19.1345 44.1938 25.6941 43.5399C33.5633 42.7557 41.3702 42.2065 45.3597 41.9468C42.3772 44.4311 38.3822 46.0882 34.0681 46.5842Z" fill="#B8B8B8"/>
</svg>
