<svg width="67" height="43" viewBox="0 0 67 43" fill="none" xmlns="http://www.w3.org/2000/svg">
<path d="M63.4649 29.5273C58.2969 10.1455 48.2813 0.283936 33.6826 0.283936C19.0519 0.283936 9.03632 10.1455 3.86828 29.505L0.374855 41.5482C0.326936 41.7125 0.32007 41.8848 0.354778 42.0519C0.389486 42.219 0.464856 42.3767 0.575166 42.5128C0.689191 42.6484 0.834978 42.7583 1.00153 42.8341C1.16809 42.91 1.35106 42.9498 1.53666 42.9506H65.7965C65.9811 42.9508 66.1633 42.9116 66.3289 42.8361C66.4944 42.7605 66.639 42.6507 66.7514 42.5151C66.8637 42.3794 66.9409 42.2217 66.9767 42.054C67.0126 41.8863 67.0063 41.7132 66.9583 41.5482L63.4649 29.5273ZM23.5549 10.5536C27.0964 8.54272 30.4776 7.51872 33.6826 7.51872C36.8876 7.51872 40.2048 8.52046 43.7142 10.4868C45.1375 11.2929 46.3982 12.3224 47.44 13.5292V30.2767C47.4379 31.966 46.7118 33.5853 45.4213 34.7791C44.1308 35.9728 42.3813 36.6434 40.5573 36.6434H19.0359L22.1287 11.496C22.5803 11.1521 23.0568 10.8373 23.5549 10.5536ZM16.6161 36.6434H14.2604L16.7683 20.2519C17.105 18.0754 17.9978 16.0046 19.3724 14.2118L16.6161 36.6434ZM33.8509 40.7245H13.6515L13.9319 38.8694H40.5573C43.0182 38.8675 45.3778 37.9618 47.1186 36.351C48.8595 34.7402 49.8395 32.5558 49.8437 30.2767V17.6623C50.1611 18.5451 50.3838 19.4548 50.5088 20.3781L52.6321 35.6565C52.7196 36.2894 52.6607 36.9323 52.4593 37.5425C52.2579 38.1527 51.9185 38.7162 51.4638 39.1956C51.009 39.6749 50.4494 40.0592 49.8219 40.3228C49.1945 40.5864 48.5136 40.7234 47.8246 40.7245H33.8509ZM53.217 40.7245C53.2403 40.7066 53.2618 40.6868 53.2811 40.6652C53.9624 39.9479 54.4706 39.1043 54.7718 38.1907C55.073 37.277 55.1603 36.3144 55.0278 35.3671L52.9125 20.0887C52.6082 17.7431 51.7352 15.4915 50.3588 13.5024C48.9824 11.5132 47.1382 9.83806 44.9642 8.60208C41.0781 6.37599 37.2802 5.29263 33.6826 5.29263C30.085 5.29263 26.223 6.42794 22.2969 8.65402C21.58 9.06672 20.8971 9.52804 20.2538 10.0342C17.0675 12.5495 14.9914 16.0621 14.4207 19.9032L11.2157 40.68H3.09909L6.19991 30.0616C11.0715 11.7854 20.3098 2.51002 33.6826 2.51002C47.0554 2.51002 56.2777 11.7854 61.1573 30.0838L64.2341 40.7245H53.217Z" fill="#B8B8B8"/>
</svg>
