<svg width="101" height="41" viewBox="0 0 101 41" fill="none" xmlns="http://www.w3.org/2000/svg">
<rect x="0.78125" y="0.677734" width="99" height="39" rx="9.5" stroke="#374151"/>
<path d="M17.2812 16.8457H19.3646" stroke="#374151" stroke-width="1.5" stroke-linecap="round" stroke-linejoin="round"/>
<path d="M23.9492 16.8457H29.3659" stroke="#374151" stroke-width="1.5" stroke-linecap="round" stroke-linejoin="round"/>
<path d="M17.2812 23.5117H23.5312" stroke="#374151" stroke-width="1.5" stroke-linecap="round" stroke-linejoin="round"/>
<path d="M28.1133 23.5117H29.3633" stroke="#374151" stroke-width="1.5" stroke-linecap="round" stroke-linejoin="round"/>
<path d="M23.5312 16.8457C23.5312 17.8812 22.6918 18.7207 21.6562 18.7207C20.6207 18.7207 19.7812 17.8812 19.7812 16.8457C19.7812 15.8102 20.6207 14.9707 21.6562 14.9707C22.6918 14.9707 23.5312 15.8102 23.5312 16.8457Z" stroke="#374151" stroke-width="1.5" stroke-linecap="round" stroke-linejoin="round"/>
<path d="M27.6992 23.5117C27.6992 24.5473 26.8598 25.3867 25.8242 25.3867C24.7887 25.3867 23.9492 24.5473 23.9492 23.5117C23.9492 22.4762 24.7887 21.6367 25.8242 21.6367C26.8598 21.6367 27.6992 22.4762 27.6992 23.5117Z" stroke="#374151" stroke-width="1.5" stroke-linecap="round" stroke-linejoin="round"/>
<path d="M42.5572 25.1777V14.9959H48.6623V16.0897H43.7901V19.53H48.2049V20.6238H43.7901V25.1777H42.5572ZM50.6149 25.1777V17.5414H51.7882V25.1777H50.6149ZM51.2115 16.2686C50.9828 16.2686 50.7856 16.1908 50.6199 16.035C50.4574 15.8792 50.3762 15.6919 50.3762 15.4732C50.3762 15.2544 50.4574 15.0672 50.6199 14.9114C50.7856 14.7556 50.9828 14.6777 51.2115 14.6777C51.4402 14.6777 51.6357 14.7556 51.7981 14.9114C51.9638 15.0672 52.0467 15.2544 52.0467 15.4732C52.0467 15.6919 51.9638 15.8792 51.7981 16.035C51.6357 16.1908 51.4402 16.2686 51.2115 16.2686ZM55.1104 14.9959V25.1777H53.9371V14.9959H55.1104ZM60.5804 17.5414V18.5357H56.623V17.5414H60.5804ZM57.7765 15.7118H58.9498V22.9902C58.9498 23.3217 58.9978 23.5703 59.0939 23.736C59.1934 23.8984 59.3193 24.0078 59.4718 24.0641C59.6275 24.1171 59.7916 24.1436 59.964 24.1436C60.0932 24.1436 60.1993 24.137 60.2821 24.1238C60.365 24.1072 60.4313 24.0939 60.481 24.084L60.7196 25.138C60.6401 25.1678 60.5291 25.1976 60.3865 25.2275C60.244 25.2606 60.0634 25.2772 59.8446 25.2772C59.5132 25.2772 59.1884 25.2059 58.8702 25.0634C58.5553 24.9209 58.2935 24.7038 58.0847 24.4121C57.8792 24.1204 57.7765 23.7525 57.7765 23.3084V15.7118ZM65.465 25.3368C64.7292 25.3368 64.0945 25.1744 63.5609 24.8496C63.0306 24.5215 62.6213 24.0641 62.3329 23.4775C62.0479 22.8875 61.9054 22.2014 61.9054 21.4192C61.9054 20.637 62.0479 19.9476 62.3329 19.351C62.6213 18.7511 63.0223 18.2838 63.536 17.949C64.0531 17.611 64.6563 17.4419 65.3457 17.4419C65.7434 17.4419 66.1362 17.5082 66.524 17.6408C66.9118 17.7734 67.2647 17.9888 67.5829 18.2871C67.9011 18.5821 68.1547 18.9732 68.3436 19.4604C68.5325 19.9476 68.627 20.5475 68.627 21.2601V21.7573H62.7406V20.7431H67.4338C67.4338 20.3122 67.3476 19.9277 67.1752 19.5897C67.0062 19.2516 66.7643 18.9848 66.4494 18.7892C66.1378 18.5937 65.7699 18.4959 65.3457 18.4959C64.8784 18.4959 64.474 18.6119 64.1326 18.8439C63.7946 19.0726 63.5344 19.3709 63.3521 19.7388C63.1698 20.1067 63.0787 20.5011 63.0787 20.9221V21.5982C63.0787 22.1749 63.1781 22.6638 63.377 23.0648C63.5791 23.4625 63.8592 23.7658 64.2172 23.9746C64.5751 24.1801 64.9911 24.2828 65.465 24.2828C65.7733 24.2828 66.0517 24.2398 66.3002 24.1536C66.5521 24.0641 66.7692 23.9315 66.9515 23.7559C67.1338 23.5769 67.2747 23.3548 67.3741 23.0897L68.5076 23.4078C68.3883 23.7923 68.1878 24.1304 67.9061 24.4221C67.6243 24.7104 67.2763 24.9358 66.862 25.0982C66.4477 25.2573 65.9821 25.3368 65.465 25.3368ZM70.4118 25.1777V17.5414H71.5453V18.6948H71.6248C71.764 18.3169 72.0159 18.0104 72.3805 17.775C72.7451 17.5397 73.1561 17.4221 73.6135 17.4221C73.6996 17.4221 73.8074 17.4237 73.9366 17.427C74.0659 17.4303 74.1636 17.4353 74.2299 17.4419V18.6351C74.1902 18.6252 74.099 18.6103 73.9565 18.5904C73.8173 18.5672 73.6698 18.5556 73.514 18.5556C73.1428 18.5556 72.8114 18.6335 72.5197 18.7892C72.2314 18.9417 72.0027 19.1538 71.8336 19.4256C71.6679 19.6941 71.585 20.0007 71.585 20.3453V25.1777H70.4118ZM81.0298 19.2516L79.9759 19.5499C79.9096 19.3742 79.8118 19.2035 79.6825 19.0378C79.5566 18.8688 79.3842 18.7296 79.1655 18.6202C78.9467 18.5108 78.6667 18.4561 78.3253 18.4561C77.858 18.4561 77.4685 18.5639 77.157 18.7793C76.8487 18.9914 76.6946 19.2615 76.6946 19.5897C76.6946 19.8813 76.8007 20.1117 77.0128 20.2807C77.2249 20.4498 77.5563 20.5906 78.0071 20.7033L79.1406 20.9817C79.8234 21.1474 80.3321 21.401 80.6669 21.7424C81.0017 22.0804 81.169 22.5163 81.169 23.0499C81.169 23.4874 81.0431 23.8785 80.7912 24.2232C80.5426 24.5679 80.1946 24.8397 79.7472 25.0385C79.2997 25.2374 78.7794 25.3368 78.1861 25.3368C77.4072 25.3368 76.7625 25.1678 76.2521 24.8297C75.7417 24.4917 75.4186 23.9978 75.2827 23.3482L76.3963 23.0698C76.5024 23.4808 76.7029 23.789 76.9979 23.9945C77.2962 24.2 77.6856 24.3027 78.1662 24.3027C78.7131 24.3027 79.1473 24.1867 79.4688 23.9547C79.7936 23.7194 79.956 23.4377 79.956 23.1096C79.956 22.8444 79.8632 22.6223 79.6776 22.4434C79.492 22.2611 79.2069 22.1252 78.8224 22.0357L77.5497 21.7374C76.8504 21.5717 76.3366 21.3148 76.0085 20.9668C75.6837 20.6155 75.5213 20.1763 75.5213 19.6493C75.5213 19.2185 75.6423 18.8373 75.8842 18.5059C76.1295 18.1744 76.4626 17.9142 76.8835 17.7253C77.3078 17.5364 77.7884 17.4419 78.3253 17.4419C79.081 17.4419 79.6742 17.6077 80.1051 17.9391C80.5393 18.2705 80.8475 18.708 81.0298 19.2516Z" fill="#374151"/>
</svg>
