<svg width="51" height="52" viewBox="0 0 51 52" fill="none" xmlns="http://www.w3.org/2000/svg">
<path d="M50.3443 12.4348C50.2365 11.7498 49.923 11.1138 49.4454 10.6111C48.9678 10.1084 48.3487 9.76274 47.6702 9.61995L39.4087 7.80439C38.5228 7.61117 37.6057 7.61045 36.7194 7.80226C35.8332 7.99408 34.9985 8.37397 34.2717 8.91624L9.85318 26.7059L3.01318 26.4244C2.46333 26.4047 1.92125 26.5588 1.46395 26.8647C1.00664 27.1706 0.657355 27.6129 0.465703 28.1286C0.274051 28.6444 0.249775 29.2074 0.396324 29.7377C0.542872 30.2681 0.852794 30.7387 1.28207 31.0829L8.31911 36.614C9.16355 37.6414 9.72651 37.4444 23.7021 29.8303L25.011 43.0881C25.0327 43.4498 25.1567 43.7978 25.3685 44.0918C25.5803 44.3858 25.8711 44.6136 26.2073 44.7488C26.4491 44.8444 26.7072 44.8922 26.9673 44.8896C27.4907 44.8736 27.9906 44.6686 28.3747 44.3125L31.7384 41.2444C32.0733 40.9341 32.3002 40.5247 32.3858 40.0762L35.468 23.3281C40.4924 20.5133 45.2495 17.8674 48.6413 15.9392C49.2482 15.5979 49.7364 15.0794 50.0407 14.4532C50.345 13.827 50.4509 13.1228 50.3443 12.4348ZM47.248 13.4903C43.7295 15.4888 38.8035 18.2896 33.5117 21.1888L32.9347 21.5125L29.6554 39.3444L27.5865 41.2303L26.0384 25.3266L24.1665 26.2837C14.0754 31.9133 10.7117 33.5459 9.55762 34.0525L3.50577 29.2533L10.6554 29.5629L35.9887 11.1822C36.3869 10.8845 36.8435 10.6742 37.3285 10.565C37.8136 10.4559 38.3162 10.4504 38.8036 10.5488L47.0369 12.3222C47.1638 12.3452 47.28 12.4081 47.3686 12.5018C47.4572 12.5954 47.5136 12.715 47.5295 12.8429C47.5584 12.9667 47.5467 13.0966 47.496 13.2132C47.4453 13.3299 47.3583 13.427 47.248 13.4903Z" fill="#B8B8B8"/>
<path d="M9.85165 18.5979L14.862 20.0053L17.1702 18.3305L11.5405 16.6979L14.0739 15.1498L21.7724 14.9246L25.0094 12.5742L14.0739 12.912C13.7291 12.8933 13.3865 12.9766 13.0887 13.1513L9.38721 15.3046C9.08119 15.4859 8.83569 15.7537 8.68164 16.0743C8.52759 16.3949 8.47189 16.7539 8.52156 17.1061C8.57123 17.4583 8.72404 17.7879 8.96074 18.0534C9.19744 18.3189 9.50744 18.5083 9.85165 18.5979Z" fill="#B8B8B8"/>
</svg>
