<svg width="51" height="48" viewBox="0 0 51 48" fill="none" xmlns="http://www.w3.org/2000/svg">
<path fill-rule="evenodd" clip-rule="evenodd" d="M25.3311 0.950566C25.1218 0.950199 24.9107 0.972297 24.7031 1.0173H24.7013C24.2915 1.10623 23.9088 1.28199 23.5851 1.53002L22.3716 2.46098C22.3244 2.39765 22.2738 2.33548 22.2195 2.27539C21.7587 1.76626 21.0969 1.44393 20.3798 1.38354C20.3037 1.37688 20.2136 1.37143 20.1109 1.3721C19.4833 1.37627 18.8754 1.58216 18.3915 1.95314L11.2521 7.4282C10.1063 8.30598 9.95016 9.89695 10.9054 10.9502C10.9599 11.0104 11.0177 11.0669 11.077 11.1211L1.84847 18.1961C0.702724 19.0738 0.546499 20.6648 1.50176 21.7181C2.45579 22.7723 4.18499 22.916 5.32975 22.0371L6.30623 21.2884V25.3377C4.72807 25.8558 3.58915 27.2433 3.58915 28.8679C3.58915 30.4924 4.72807 31.88 6.30623 32.398V35.3374C4.72807 35.8554 3.58915 37.243 3.58915 38.8675C3.58915 40.4921 4.72807 41.8797 6.30623 42.3977V46.7839C6.30629 47.2441 6.71175 47.6172 7.21192 47.6172H43.4396C43.9398 47.6172 44.3453 47.2441 44.3453 46.7839V42.3977C45.9235 41.8797 47.0624 40.4921 47.0624 38.8675C47.0624 37.243 45.9235 35.8554 44.3453 35.3374V32.398C45.9235 31.88 47.0624 30.4924 47.0624 28.8679C47.0624 27.2433 45.9235 25.8558 44.3453 25.3377V21.2884L45.3218 22.0371C46.4665 22.916 48.1957 22.7723 49.1497 21.7181C50.105 20.6648 49.9488 19.0738 48.803 18.1961L44.3453 14.7782V5.0764C45.3714 4.88021 46.1567 4.0327 46.1567 3.03545C46.1567 1.89574 45.1312 0.952194 43.8925 0.952194H35.7412C34.5025 0.952194 33.477 1.89574 33.477 3.03545C33.477 4.0327 34.2623 4.88021 35.2884 5.0764V7.83346L27.0664 1.52997C26.5748 1.15299 25.9589 0.951658 25.3311 0.950566ZM25.3275 2.61555C25.5365 2.61565 25.7413 2.68295 25.9059 2.80923L47.6425 19.4753C48.0355 19.7763 48.0869 20.2892 47.7593 20.6504C47.4321 21.012 46.8747 21.0592 46.4821 20.7578L30.4344 8.45193C29.8447 7.99943 28.9489 8.38502 28.9485 9.09156V9.70189C28.9485 9.94713 28.7622 10.1185 28.4957 10.1185C28.2292 10.1185 28.0429 9.94713 28.0429 9.70189V7.0083C28.0428 6.76124 27.9235 6.52695 27.7174 6.36867L25.906 4.98037C25.57 4.72248 25.0816 4.72248 24.7456 4.98037L20.7973 8.00761V6.61931C21.1558 6.34445 21.5141 6.06934 21.8728 5.79415C22.3848 5.40141 22.6964 4.86604 22.8015 4.30006L24.7456 2.80923C24.8536 2.72648 24.98 2.668 25.117 2.63833H25.1188C25.1884 2.62325 25.2578 2.61555 25.3275 2.61555ZM35.7412 2.6188H43.8925C44.159 2.6188 44.3453 2.79021 44.3453 3.03545C44.3453 3.2807 44.159 3.45211 43.8925 3.45211H43.4396H36.1941H35.7412C35.4747 3.45211 35.2884 3.2807 35.2884 3.03545C35.2884 2.79021 35.4747 2.6188 35.7412 2.6188ZM20.1251 3.03871C20.1416 3.03859 20.1699 3.03941 20.2136 3.04369C20.4533 3.06386 20.6735 3.16964 20.8274 3.33991C20.828 3.34045 20.8283 3.34075 20.8292 3.34159C21.1562 3.70266 21.1048 4.21409 20.7125 4.51505C20.2458 4.873 19.7786 5.23095 19.3115 5.58923C19.1053 5.74751 18.9861 5.9818 18.986 6.22885V10.1185C18.986 10.3638 18.7997 10.5352 18.5332 10.5352C18.2666 10.5352 18.0803 10.3638 18.0803 10.1185V8.31196C18.0799 7.60544 17.1842 7.21984 16.5944 7.67234C15.5866 8.44494 14.579 9.21774 13.5713 9.98996C13.1788 10.2908 12.623 10.2435 12.2959 9.88255C11.9683 9.52132 12.0197 9.0085 12.4127 8.70746L19.5521 3.23239C19.7146 3.10777 19.9186 3.04014 20.1251 3.03871ZM37.0998 5.11871H42.5339V13.3899L37.0998 9.22339V5.11871ZM25.3258 6.70395L26.2315 7.39891V9.70189C26.2315 10.8416 27.257 11.7851 28.4957 11.7851C29.369 11.7851 29.9905 11.2453 30.3672 10.5694L42.5339 19.9001V25.118C41.7653 25.1205 41.0209 25.1178 40.2555 25.1197C39.8399 24.6167 39.1888 24.2847 38.4583 24.2847H29.8542C29.1184 24.2847 28.4633 24.6218 28.0482 25.131C21.4292 25.1279 14.8221 25.1185 8.11762 25.118V19.9001L9.41778 18.9024C9.79463 19.5781 10.4145 20.1182 11.2875 20.1182C12.5263 20.1182 13.5518 19.1746 13.5518 18.0349V15.7336L18.197 12.1709C18.3076 12.1865 18.4182 12.2018 18.5331 12.2018C19.7482 12.2018 20.7522 11.2924 20.7902 10.182L25.3258 6.70395ZM16.2688 10.0909V10.1185C16.2688 10.5192 16.4009 10.8926 16.6191 11.2123L12.0517 14.7147C11.8092 14.9012 11.6899 15.1905 11.7368 15.4781C11.7396 15.4932 11.7405 15.5112 11.7405 15.5351V18.035C11.7405 18.2802 11.5542 18.4516 11.2876 18.4516C11.0211 18.4516 10.8348 18.2802 10.8348 18.035V17.4263C10.8344 16.7198 9.93861 16.3342 9.34887 16.7867L4.16945 20.7579C3.77688 21.0593 3.21948 21.012 2.89228 20.6504C2.56466 20.2892 2.61607 19.7764 3.00903 19.4754L12.9646 11.8422C13.5895 11.8488 14.219 11.6623 14.7317 11.2693C15.2443 10.8765 15.7565 10.4837 16.2688 10.0909ZM29.8542 25.9513H38.4583C38.7249 25.9513 38.9112 26.1227 38.9112 26.368V32.6178C38.9112 32.863 38.7249 33.0344 38.4583 33.0344C38.1918 33.0344 38.0055 32.863 38.0055 32.6178V27.6179C38.0054 27.1577 37.6 26.7847 37.0998 26.7846H29.8542C29.5877 26.7846 29.4014 26.6132 29.4014 26.368C29.4014 26.1227 29.5877 25.9513 29.8542 25.9513ZM7.66477 26.7846H18.0802V30.9511H7.66477C6.39472 30.9511 5.40054 30.0364 5.40054 28.8679C5.40054 27.6993 6.39472 26.7846 7.66477 26.7846ZM19.8916 26.7846H27.636C27.8492 27.7287 28.7704 28.4512 29.8542 28.4512V45.9506H19.8916V26.7846ZM40.7225 26.7846H42.9868C44.2568 26.7846 45.251 27.6993 45.251 28.8679C45.251 30.0364 44.2568 30.9511 42.9868 30.9511H40.7225V26.7846ZM31.6656 28.4512H36.1941V30.9511H31.6656V28.4512ZM8.11762 32.6178H18.0802V35.1177H8.11762V32.6178ZM31.6656 32.6178H36.1941C36.1941 33.7575 37.2196 34.701 38.4583 34.701C39.697 34.701 40.7225 33.7575 40.7225 32.6178H42.5339V35.1177H31.6656V32.6178ZM7.66477 36.7843H18.0802V40.9508H7.66477C6.39472 40.9508 5.40054 40.0361 5.40054 38.8675C5.40054 37.699 6.39472 36.7843 7.66477 36.7843ZM31.6656 36.7843H42.9868C44.2568 36.7843 45.251 37.699 45.251 38.8675C45.251 40.0361 44.2568 40.9508 42.9868 40.9508H31.6656V36.7843ZM8.11762 42.6174H18.0802V45.9506H8.11762V42.6174ZM31.6656 42.6174H42.5339V45.9506H31.6656V42.6174Z" fill="#B8B8B8"/>
<path fill-rule="evenodd" clip-rule="evenodd" d="M4.99993 1.75903C4.75973 1.75903 4.52937 1.84679 4.35952 2.00306C4.18967 2.15934 4.09424 2.37133 4.09424 2.59234C4.09424 2.81334 4.18967 3.02529 4.35952 3.18156C4.52937 3.33784 4.75973 3.42564 4.99993 3.42564C5.24014 3.42564 5.47052 3.33784 5.64037 3.18156C5.81022 3.02529 5.90562 2.81334 5.90562 2.59234C5.90562 2.37133 5.81022 2.15934 5.64037 2.00306C5.47052 1.84679 5.24014 1.75903 4.99993 1.75903Z" fill="#B8B8B8"/>
<path fill-rule="evenodd" clip-rule="evenodd" d="M25.3258 12.6184C22.3353 12.6184 19.8916 14.8668 19.8916 17.6182C19.8916 20.3697 22.3353 22.6181 25.3258 22.6181C28.3162 22.6181 30.7599 20.3697 30.7599 17.6182C30.7599 14.8668 28.3162 12.6184 25.3258 12.6184ZM25.3258 14.285C27.3373 14.285 28.9485 15.7675 28.9485 17.6182C28.9485 19.469 27.3373 20.9515 25.3258 20.9515C23.3142 20.9515 21.703 19.469 21.703 17.6182C21.703 15.7675 23.3142 14.285 25.3258 14.285Z" fill="#B8B8B8"/>
<path fill-rule="evenodd" clip-rule="evenodd" d="M27.1371 34.701C26.8969 34.701 26.6666 34.7889 26.4967 34.9451C26.3269 35.1014 26.2314 35.3133 26.2314 35.5344V38.0343C26.2314 38.2553 26.3269 38.4672 26.4967 38.6235C26.6666 38.7798 26.8969 38.8676 27.1371 38.8676C27.3773 38.8676 27.6077 38.7798 27.7775 38.6235C27.9474 38.4672 28.0428 38.2553 28.0428 38.0343V35.5344C28.0428 35.3133 27.9474 35.1014 27.7775 34.9451C27.6077 34.7889 27.3773 34.701 27.1371 34.701Z" fill="#B8B8B8"/>
<path fill-rule="evenodd" clip-rule="evenodd" d="M49.7612 4.48438C49.521 4.48438 49.2906 4.57218 49.1207 4.72846C48.9509 4.88473 48.8555 5.09667 48.8555 5.31768C48.8555 5.53869 48.9509 5.75068 49.1207 5.90695C49.2906 6.06323 49.521 6.15098 49.7612 6.15098C50.0014 6.15098 50.2317 6.06323 50.4016 5.90695C50.5714 5.75068 50.6669 5.53869 50.6669 5.31768C50.6669 5.09667 50.5714 4.88473 50.4016 4.72846C50.2317 4.57218 50.0014 4.48438 49.7612 4.48438Z" fill="#B8B8B8"/>
<path fill-rule="evenodd" clip-rule="evenodd" d="M0.905693 28.2924C0.665488 28.2924 0.435135 28.3802 0.265284 28.5364C0.095434 28.6927 0 28.9047 0 29.1257C0 29.3467 0.095434 29.5586 0.265284 29.7149C0.435135 29.8712 0.665488 29.959 0.905693 29.959C1.1459 29.959 1.37628 29.8712 1.54613 29.7149C1.71598 29.5586 1.81139 29.3467 1.81139 29.1257C1.81139 28.9047 1.71598 28.6927 1.54613 28.5364C1.37628 28.3802 1.1459 28.2924 0.905693 28.2924Z" fill="#B8B8B8"/>
<path fill-rule="evenodd" clip-rule="evenodd" d="M3.08929 9.12134C2.84908 9.12134 2.61873 9.20914 2.44888 9.36542C2.27903 9.52169 2.18359 9.73364 2.18359 9.95464C2.18359 10.1756 2.27903 10.3876 2.44888 10.5439C2.61873 10.7002 2.84908 10.7879 3.08929 10.7879C3.32949 10.7879 3.55987 10.7002 3.72972 10.5439C3.89957 10.3876 3.99498 10.1756 3.99498 9.95464C3.99498 9.73364 3.89957 9.52169 3.72972 9.36542C3.55987 9.20914 3.32949 9.12134 3.08929 9.12134Z" fill="#B8B8B8"/>
<path fill-rule="evenodd" clip-rule="evenodd" d="M47.4506 13.1025C47.2104 13.1025 46.9801 13.1903 46.8102 13.3466C46.6404 13.5029 46.5449 13.7148 46.5449 13.9358C46.5449 14.1568 46.6404 14.3688 46.8102 14.5251C46.9801 14.6813 47.2104 14.7691 47.4506 14.7691C47.6908 14.7691 47.9212 14.6813 48.0911 14.5251C48.2609 14.3688 48.3563 14.1568 48.3563 13.9358C48.3563 13.7148 48.2609 13.5029 48.0911 13.3466C47.9212 13.1903 47.6908 13.1025 47.4506 13.1025Z" fill="#B8B8B8"/>
<path fill-rule="evenodd" clip-rule="evenodd" d="M48.8735 32.467C48.6333 32.467 48.4029 32.5548 48.233 32.7111C48.0632 32.8674 47.9678 33.0793 47.9678 33.3003C47.9678 33.5214 48.0632 33.7333 48.233 33.8896C48.4029 34.0458 48.6333 34.1336 48.8735 34.1336C49.1137 34.1336 49.344 34.0458 49.5139 33.8896C49.6837 33.7333 49.7792 33.5214 49.7792 33.3003C49.7792 33.0793 49.6837 32.8674 49.5139 32.7111C49.344 32.5548 49.1137 32.467 48.8735 32.467Z" fill="#B8B8B8"/>
<path fill-rule="evenodd" clip-rule="evenodd" d="M14.0741 1.50415C13.8339 1.50415 13.6036 1.59196 13.4337 1.74823C13.2639 1.90451 13.1685 2.11645 13.1685 2.33745C13.1685 2.55846 13.2639 2.7704 13.4337 2.92668C13.6036 3.08295 13.8339 3.17076 14.0741 3.17076C14.3144 3.17076 14.5447 3.08295 14.7146 2.92668C14.8844 2.7704 14.9798 2.55846 14.9798 2.33745C14.9798 2.11645 14.8844 1.90451 14.7146 1.74823C14.5447 1.59196 14.3144 1.50415 14.0741 1.50415Z" fill="#B8B8B8"/>
</svg>
