<svg width="48" height="41" viewBox="0 0 48 41" fill="none" xmlns="http://www.w3.org/2000/svg">
<path d="M9.66722 37.6239C9.66722 39.0923 8.47722 40.2839 7.00888 40.2839H6.99889C6.29429 40.2839 5.61856 40.004 5.12034 39.5058C4.62212 39.0076 4.34222 38.3319 4.34222 37.6273V2.9406C4.34222 1.47227 5.53222 0.283936 6.99889 0.283936H7.00888C8.47722 0.283936 9.66722 1.47394 9.66722 2.94227V37.6239ZM3.62722 4.75894H1.76889C1.3824 4.77671 1.0176 4.94263 0.750224 5.22227C0.482849 5.50191 0.333438 5.87378 0.333009 6.26068C0.33258 6.64757 0.481166 7.01977 0.747921 7.30001C1.01468 7.58024 1.37911 7.74698 1.76555 7.7656H3.62555L3.62722 4.75894ZM42.9439 10.1989H16.2772C15.1046 10.2007 13.9805 10.6673 13.1514 11.4964C12.3222 12.3256 11.8556 13.4497 11.8539 14.6223V30.0356C11.8539 30.616 11.9682 31.1908 12.1903 31.7271C12.4125 32.2633 12.738 32.7506 13.1485 33.161C13.5589 33.5714 14.0462 33.897 14.5824 34.1191C15.1187 34.3413 15.6934 34.4556 16.2739 34.4556H42.9439C44.1165 34.4538 45.2405 33.9872 46.0697 33.1581C46.8989 32.3289 47.3654 31.2049 47.3672 30.0323V14.6189C47.3672 13.4467 46.9015 12.3224 46.0726 11.4935C45.2437 10.6646 44.1195 10.1989 42.9472 10.1989H42.9439ZM45.0772 30.0323C45.075 30.5952 44.8504 31.1344 44.4524 31.5324C44.0544 31.9305 43.5151 32.1551 42.9522 32.1573H16.2822C15.1106 32.1573 14.1605 31.2073 14.1605 30.0356V14.6206C14.1627 14.058 14.3871 13.519 14.7848 13.121C15.1825 12.723 15.7213 12.4982 16.2839 12.4956H42.9505C43.5135 12.4978 44.0527 12.7224 44.4507 13.1204C44.8488 13.5185 45.0734 14.0577 45.0755 14.6206L45.0772 30.0323ZM20.4389 9.34394C20.85 9.34394 21.2442 9.18063 21.5349 8.88995C21.8256 8.59927 21.9889 8.20502 21.9889 7.79394V4.64894C21.9889 4.23785 21.8256 3.8436 21.5349 3.55292C21.2442 3.26224 20.85 3.09894 20.4389 3.09894C20.0278 3.09894 19.6335 3.26224 19.3429 3.55292C19.0522 3.8436 18.8889 4.23785 18.8889 4.64894V4.69727V7.7956C18.8889 8.20669 19.0522 8.60094 19.3429 8.89162C19.6335 9.1823 20.0278 9.3456 20.4389 9.3456V9.34394ZM38.7872 9.34394C39.1983 9.34394 39.5925 9.18063 39.8832 8.88995C40.1739 8.59927 40.3372 8.20502 40.3372 7.79394V4.69394C40.3372 4.28285 40.1739 3.8886 39.8832 3.59792C39.5925 3.30724 39.1983 3.14394 38.7872 3.14394C38.3761 3.14394 37.9819 3.30724 37.6912 3.59792C37.4005 3.8886 37.2372 4.28285 37.2372 4.69394V7.79394C37.2372 8.6506 37.9322 9.34394 38.7872 9.34394ZM22.7489 4.75894H36.4739V7.7656H22.7489V4.75894ZM46.2322 6.24394C46.2313 5.8508 46.0748 5.47402 45.7968 5.19603C45.5188 4.91804 45.142 4.76148 44.7489 4.7606H41.3139V7.76727H44.7472C45.1402 7.76595 45.5167 7.60925 45.7946 7.33135C46.0725 7.05346 46.2292 6.67693 46.2305 6.28394L46.2322 6.24394Z" fill="#B8B8B8"/>
<path d="M20.6645 25.2995H19.0478V23.8028H17.5645V28.0928H19.0478V26.3595H20.6645V28.0928H22.1478V23.8028H20.6645V25.2995ZM27.2678 24.2978C26.7349 23.9219 26.0983 23.721 25.4461 23.7228C24.7561 23.7228 24.1178 23.9428 23.5961 24.3178L23.6061 24.3111C23.3984 24.5036 23.2327 24.737 23.1194 24.9965C23.0061 25.2561 22.9477 25.5363 22.9478 25.8195L22.9511 25.9478V25.9428L22.9495 26.0378C22.9495 26.4678 23.0745 26.8695 23.2911 27.2078L23.2861 27.1995C23.4945 27.5211 23.7845 27.7728 24.1278 27.9295L24.1395 27.9345C24.4945 28.0795 24.9078 28.1645 25.3395 28.1645L25.4795 28.1611H25.4728L25.5578 28.1628C26.0095 28.1628 26.4395 28.0645 26.8261 27.8878L26.8078 27.8961C27.1528 27.7311 27.4328 27.4745 27.6195 27.1561L27.6245 27.1478C27.8101 26.7977 27.9069 26.4074 27.9061 26.0111L27.9045 25.9145V25.9195L27.9078 25.7961C27.9078 25.2095 27.6628 24.6795 27.2695 24.3045L27.2678 24.2978ZM26.1728 26.8911C26.0845 26.9804 25.9794 27.0512 25.8635 27.0995C25.7476 27.1479 25.6234 27.1728 25.4978 27.1728L25.4345 27.1711H25.4378L25.3928 27.1728C25.1347 27.1733 24.8868 27.0721 24.7028 26.8911C24.5266 26.6104 24.4333 26.2855 24.4339 25.954C24.4345 25.6225 24.5289 25.2979 24.7061 25.0178L24.7011 25.0245C24.8928 24.8495 25.1478 24.7445 25.4295 24.7445C25.7111 24.7445 25.9661 24.8511 26.1578 25.0261C26.2594 25.1489 26.3336 25.2907 26.3794 25.4433C26.4253 25.5959 26.44 25.7561 26.4228 25.9145V25.9095C26.4607 26.2595 26.37 26.6113 26.1678 26.8995L26.1711 26.8945L26.1728 26.8911ZM28.1895 24.8578H29.6995V28.0928H31.1828V24.8578H32.6928V23.8011H28.1895V24.8578ZM34.8461 26.2761H37.1461V25.3928H34.8461V24.7111H37.3195V23.8011H33.3628V28.0911H37.3995V27.1145H34.8461V26.2761ZM39.6695 23.8028H38.1861V28.0928H41.9828V27.0361H39.6711L39.6695 23.8028ZM17.9528 20.3278L19.3428 19.5911L20.7461 20.3278L20.4795 18.7778L21.6028 17.6811L20.0528 17.4545L19.3445 16.0378L18.6495 17.4545L17.0995 17.6811L18.2228 18.7778L17.9528 20.3278ZM23.0978 20.3278L24.4878 19.5911L25.8778 20.3278L25.6111 18.7778L26.7328 17.6811L25.1828 17.4545L24.4878 16.0378L23.7928 17.4545L22.2295 17.6811L23.3528 18.7778L23.0978 20.3278ZM28.2295 20.3278L29.6195 19.5911L31.0095 20.3278L30.7428 18.7778L31.8661 17.6811L30.3161 17.4545L29.6211 16.0378L28.9261 17.4545L27.3628 17.6811L28.4995 18.7778L28.2295 20.3278ZM33.3611 20.3278L34.7511 19.5911L36.1411 20.3278L35.8745 18.7778L36.9978 17.6811L35.4478 17.4545L34.7528 16.0378L34.0578 17.4545L32.4945 17.6811L33.6311 18.7778L33.3611 20.3278ZM39.8811 16.0378L39.1861 17.4545L37.6361 17.6811L38.7578 18.7778L38.4911 20.3278L39.8811 19.5911L41.2711 20.3278L41.0045 18.7778L42.1411 17.6811L40.5778 17.4545L39.8811 16.0378ZM10.5078 4.75781H17.9245V7.76448H10.5078V4.75781Z" fill="#B8B8B8"/>
</svg>
