<svg width="34" height="36" viewBox="0 0 34 36" fill="none" xmlns="http://www.w3.org/2000/svg">
<path d="M32.2043 8.08887L18.4507 0.563464C18.0832 0.360414 17.6702 0.253906 17.2504 0.253906C16.8305 0.253906 16.4175 0.360414 16.05 0.563464L2.29643 8.092C1.90366 8.30691 1.57578 8.62333 1.34705 9.00822C1.11831 9.39311 0.99711 9.83235 0.996094 10.2801V25.2277C0.99711 25.6755 1.11831 26.1147 1.34705 26.4996C1.57578 26.8845 1.90366 27.2009 2.29643 27.4158L16.05 34.9444C16.4175 35.1474 16.8305 35.2539 17.2504 35.2539C17.6702 35.2539 18.0832 35.1474 18.4507 34.9444L32.2043 27.4158C32.597 27.2009 32.9249 26.8845 33.1537 26.4996C33.3824 26.1147 33.5036 25.6755 33.5046 25.2277V10.2816C33.5044 9.83311 33.3836 9.39289 33.1549 9.00711C32.9261 8.62132 32.5977 8.30416 32.2043 8.08887ZM17.2504 2.75154L29.8068 9.62834L25.154 12.1759L12.596 5.29908L17.2504 2.75154ZM17.2504 16.5051L4.69394 9.62834L9.9922 6.72758L22.5486 13.6044L17.2504 16.5051ZM3.49675 11.8164L16 18.6588V32.067L3.49675 25.2293V11.8164ZM31.004 25.2231L18.5007 32.067V18.6651L23.502 15.9284V21.5065C23.502 21.8381 23.6337 22.1561 23.8682 22.3906C24.1027 22.6251 24.4207 22.7568 24.7523 22.7568C25.0839 22.7568 25.402 22.6251 25.6364 22.3906C25.8709 22.1561 26.0026 21.8381 26.0026 21.5065V14.5593L31.004 11.8164V25.2215V25.2231Z" fill="#B8B8B8"/>
</svg>
