<svg width="30" height="36" viewBox="0 0 30 36" fill="none" xmlns="http://www.w3.org/2000/svg">
<path d="M6.25 0.759766H8.74961V13.2578H6.25V0.759766Z" fill="#B8B8B8"/>
<path d="M12.4981 12.0076C12.4981 13.3335 11.9714 14.605 11.0338 15.5426C10.0963 16.4801 8.82471 17.0068 7.49883 17.0068C6.17296 17.0068 4.90139 16.4801 3.96385 15.5426C3.02631 14.605 2.49961 13.3335 2.49961 12.0076V0.759351H0V12.0076C0.00179452 13.7784 0.63021 15.4915 1.77396 16.8434C2.9177 18.1953 4.50297 19.0988 6.24903 19.394V35.7539H8.74864V19.394C10.4947 19.0988 12.08 18.1953 13.2237 16.8434C14.3675 15.4915 14.9959 13.7784 14.9977 12.0076V0.759351H12.4981V12.0076ZM22.4965 0.759351H21.2467V35.7539H23.7463V23.2559H27.4957C28.1587 23.2559 28.7944 22.9925 29.2632 22.5237C29.732 22.055 29.9953 21.4192 29.9953 20.7562V8.25818C30.034 7.26306 29.8665 6.27069 29.5033 5.3434C29.1401 4.41611 28.5891 3.57392 27.885 2.86973C27.1808 2.16554 26.3386 1.61456 25.4113 1.25139C24.484 0.888214 23.4916 0.720695 22.4965 0.759351ZM27.4957 20.7562H23.7463V3.37144C27.3457 4.07134 27.4957 7.79576 27.4957 8.25818V20.7562Z" fill="#B8B8B8"/>
</svg>
