<svg width="56" height="41" viewBox="0 0 56 41" fill="none" xmlns="http://www.w3.org/2000/svg">
<path d="M35.985 12.4578C37.1889 12.4578 38.3657 12.1009 39.3667 11.432C40.3677 10.7632 41.1479 9.81252 41.6086 8.70027C42.0693 7.58803 42.1898 6.36414 41.955 5.18339C41.7201 4.00263 41.1404 2.91804 40.2891 2.06677C39.4378 1.21549 38.3532 0.635764 37.1725 0.400897C35.9917 0.166031 34.7678 0.286573 33.6556 0.74728C32.5433 1.20799 31.5927 1.98817 30.9239 2.98916C30.255 3.99016 29.898 5.16701 29.898 6.37089C29.898 7.98526 30.5393 9.5335 31.6808 10.675C32.8224 11.8165 34.3706 12.4578 35.985 12.4578ZM35.985 3.7622C36.5009 3.7622 37.0053 3.9152 37.4343 4.20184C37.8633 4.48849 38.1976 4.89591 38.3951 5.37259C38.5925 5.84927 38.6442 6.37379 38.5435 6.87983C38.4429 7.38586 38.1944 7.85069 37.8296 8.21552C37.4648 8.58035 36.9999 8.82881 36.4939 8.92946C35.9879 9.03012 35.4633 8.97846 34.9867 8.78101C34.51 8.58357 34.1026 8.24921 33.8159 7.82021C33.5293 7.39121 33.3763 6.88685 33.3763 6.37089C33.3763 5.67903 33.6511 5.01549 34.1403 4.52627C34.6296 4.03704 35.2931 3.7622 35.985 3.7622ZM55.7415 37.6578L43.8806 17.6405C43.5747 17.119 43.1372 16.6871 42.6118 16.388C42.0864 16.0888 41.4917 15.933 40.8871 15.9361C40.2829 15.933 39.6884 16.0888 39.1634 16.3879C38.6383 16.6871 38.2012 17.119 37.8958 17.6405L32.2089 27.2405L22.4611 10.697C22.1539 10.1749 21.7157 9.74216 21.1899 9.44147C20.6641 9.14079 20.0689 8.98262 19.4632 8.98262C18.8575 8.98262 18.2623 9.14079 17.7365 9.44147C17.2107 9.74216 16.7726 10.1749 16.4654 10.697L0.574102 37.6622C0.418552 37.9263 0.335561 38.2268 0.333534 38.5333C0.331508 38.8398 0.410518 39.1414 0.562561 39.4075C0.714605 39.6737 0.934282 39.8949 1.19934 40.0488C1.4644 40.2027 1.76543 40.2838 2.07193 40.2839H54.2458C54.5528 40.2839 54.8543 40.2026 55.1197 40.0483C55.385 39.894 55.6048 39.6722 55.7568 39.4055C55.9087 39.1388 55.9873 38.8366 55.9846 38.5296C55.9819 38.2227 55.898 37.9219 55.7415 37.6578ZM19.4632 12.4578L24.5871 21.1535H14.3393L19.4632 12.4578ZM5.11541 36.8057L12.2893 24.6318H26.6371L30.7111 31.5448L33.8111 36.8057H5.11541ZM37.848 36.8057L34.2263 30.6578L40.8871 19.4144L51.2024 36.8057H37.848Z" fill="#B8B8B8"/>
</svg>
