<svg width="45" height="36" viewBox="0 0 45 36" fill="none" xmlns="http://www.w3.org/2000/svg">
<path d="M21.875 30.5137H22.625H40.125H40.875V31.2637V33.9762C40.875 34.1947 40.968 34.4379 41.1318 34.6246C41.2941 34.8096 41.478 34.8887 41.6344 34.8887H42.9688C43.3589 34.8887 43.75 34.5082 43.75 34.0637V22.1373L40.664 13.2677L21.875 30.5137ZM21.875 30.5137V31.2637M21.875 30.5137V31.2637M21.875 31.2637V33.9762C21.875 34.2016 21.7825 34.4461 21.6242 34.6302C21.4681 34.8119 21.2916 34.8887 21.1375 34.8887H19.7812C19.3911 34.8887 19 34.5082 19 34.0637V22.1373L22.0832 13.2757C22.3 12.7065 22.8218 12.3262 23.5219 12.3262H39.25C39.9386 12.3262 40.4697 12.7144 40.6635 13.2664L21.875 31.2637ZM7.84283 31.794L9.12316 30.5137H7.3125C5.77093 30.5137 4.2925 29.9013 3.20244 28.8112C2.11239 27.7212 1.5 26.2427 1.5 24.7012V7.20117C1.5 5.6596 2.11239 4.18117 3.20244 3.09111C4.2925 2.00106 5.77093 1.38867 7.3125 1.38867H22.625C24.1666 1.38867 25.645 2.00106 26.7351 3.09111C27.8251 4.18117 28.4375 5.6596 28.4375 7.20117V8.63867H25.5625V5.01367V4.26367H24.8125H5.125H4.375V5.01367V20.3262V21.0762H5.125H15.3125V30.5023L11.6987 30.4481L11.3782 30.4433L11.1532 30.6717L6.99856 34.8887H5.875V33.7618L7.84283 31.794ZM23.5219 13.0137H22.9864L22.8125 13.5201L20.5594 20.0826L20.2183 21.0762H21.2688H41.5031H42.5536L42.2125 20.0826L39.9594 13.5201L39.7855 13.0137H39.25H23.5219ZM9.38963 22.624C8.83874 22.0732 8.09157 21.7637 7.3125 21.7637C6.53343 21.7637 5.78626 22.0732 5.23537 22.624C4.68449 23.1749 4.375 23.9221 4.375 24.7012C4.375 25.4802 4.68449 26.2274 5.23537 26.7783C5.78626 27.3292 6.53343 27.6387 7.3125 27.6387C8.09157 27.6387 8.83874 27.3292 9.38963 26.7783C9.94051 26.2274 10.25 25.4802 10.25 24.7012C10.25 23.9221 9.94051 23.1749 9.38963 22.624ZM20.5479 26.7783C21.0988 27.3292 21.8459 27.6387 22.625 27.6387C23.4041 27.6387 24.1512 27.3292 24.7021 26.7783C25.253 26.2274 25.5625 25.4802 25.5625 24.7012C25.5625 23.9221 25.253 23.1749 24.7021 22.624C24.1512 22.0732 23.4041 21.7637 22.625 21.7637C21.8459 21.7637 21.0988 22.0732 20.5479 22.624C19.997 23.1749 19.6875 23.9221 19.6875 24.7012C19.6875 25.4802 19.997 26.2274 20.5479 26.7783ZM38.0479 26.7783C38.5988 27.3292 39.3459 27.6387 40.125 27.6387C40.9041 27.6387 41.6512 27.3292 42.2021 26.7783C42.753 26.2274 43.0625 25.4802 43.0625 24.7012C43.0625 23.9221 42.753 23.1749 42.2021 22.624C41.6512 22.0732 40.9041 21.7637 40.125 21.7637C39.3459 21.7637 38.5988 22.0732 38.0479 22.624C37.497 23.1749 37.1875 23.9221 37.1875 24.7012C37.1875 25.4802 37.497 26.2274 38.0479 26.7783Z" stroke="#B8B8B8" stroke-width="1.5"/>
</svg>
