<svg width="38" height="41" viewBox="0 0 38 41" fill="none" xmlns="http://www.w3.org/2000/svg">
<path d="M10.4026 39.1706C8.11722 38.5039 6.30948 37.141 4.95731 35.4248C2.99372 32.9326 2.00008 29.6964 2.00008 26.8217C2.00008 22.501 4.14976 17.8203 8.74719 13.1984C12.7069 9.21756 13.4595 5.38353 13.4595 2.69389V2.58412L13.4416 2.47582C13.4373 2.44998 13.4387 2.43493 13.4398 2.42759C13.441 2.41969 13.4434 2.41146 13.4482 2.40161C13.4591 2.37944 13.4847 2.34595 13.5289 2.31716C13.5432 2.30789 13.5562 2.30117 13.5673 2.29631L13.6321 2.33293C15.3133 3.28369 17.3308 4.58732 19.0973 6.18303C20.8706 7.78493 22.3074 9.60633 22.9649 11.5792C23.9412 14.7301 23.7575 18.1022 22.3518 21.5342L21.248 24.2292L24.0093 23.3038C26.9284 22.3256 28.7633 20.576 29.8415 18.5674C30.8574 16.6751 31.1648 14.6256 31.1878 12.9071C31.1923 12.901 31.1977 12.8945 31.2039 12.8876C33.4504 15.7711 36.0902 20.6965 36.0902 27.039C36.0902 32.3912 34.4128 35.4857 32.4935 37.2525C30.5378 39.0527 28.177 39.6172 26.6127 39.6172C22.8754 39.6172 14.4291 36.5562 12.7989 24.4698L12.3999 21.5111L10.4629 23.7829L11.4776 24.648C10.4629 23.7829 10.4624 23.7836 10.4618 23.7842L10.4606 23.7857L10.4576 23.7892L10.4499 23.7984L10.4278 23.8252C10.4101 23.8468 10.3865 23.8759 10.3579 23.9124C10.3007 23.9853 10.223 24.0876 10.1302 24.2177C9.94481 24.4776 9.69794 24.8506 9.43437 25.3237C8.909 26.2669 8.30587 27.6288 8.00335 29.3015C7.50603 32.0513 7.84842 35.5057 10.4026 39.1706Z" stroke="#B8B8B8" stroke-width="2.66667"/>
</svg>
